<?xml version="1.0" standalone="no"?>
<!DOCTYPE svg PUBLIC "-//W3C//DTD SVG 20010904//EN"
 "http://www.w3.org/TR/2001/REC-SVG-20010904/DTD/svg10.dtd">
<svg version="1.0" xmlns="http://www.w3.org/2000/svg"
 width="630.000000pt" height="173.000000pt" viewBox="0 0 630.000000 173.000000"
 preserveAspectRatio="xMidYMid meet">

<g transform="translate(0.000000,173.000000) scale(0.100000,-0.100000)"
fill="#000000" stroke="none">
<path d="M500 1545 c-13 -14 -28 -25 -32 -25 -5 0 -16 -6 -24 -14 -16 -17 -13
-92 5 -140 7 -16 9 -48 6 -70 -3 -23 -2 -61 4 -86 8 -43 9 -42 10 32 1 42 6
89 13 103 9 19 9 28 0 37 -21 21 -13 53 16 70 15 9 37 26 48 37 19 17 36 20
120 21 55 1 105 1 112 1 8 -1 12 -17 12 -45 0 -25 5 -48 10 -51 6 -4 10 -105
10 -271 l0 -264 -37 0 c-21 0 -45 -5 -53 -10 -11 -7 -7 -10 19 -10 23 0 39 -7
53 -25 14 -18 29 -25 56 -25 54 0 65 -10 57 -54 -5 -24 -3 -36 4 -36 6 0 11
-4 11 -10 0 -6 -50 -10 -130 -10 -107 0 -130 -3 -138 -16 -5 -9 -18 -14 -31
-12 -28 4 -29 21 -1 28 19 4 16 8 -21 24 -24 11 -48 25 -52 33 -13 22 -24 6
-19 -27 4 -26 8 -30 26 -25 15 5 17 4 7 -3 -7 -6 -10 -15 -6 -22 10 -16 97
-54 163 -71 55 -13 63 -29 21 -40 -13 -4 -156 -7 -316 -8 l-293 -1 -5 -23 c-3
-12 -4 -112 -3 -222 l3 -200 1542 -3 1543 -2 0 219 c0 161 -3 222 -12 227 -7
4 -493 7 -1081 5 -1042 -2 -1200 2 -1171 29 5 4 49 20 99 36 56 17 98 37 112
52 25 27 38 79 28 112 -11 33 -73 67 -140 73 -33 4 -82 10 -109 14 l-49 8 3
265 c1 146 3 285 3 310 l2 45 113 3 c63 1 112 7 112 12 0 19 47 10 68 -13 26
-27 31 -57 7 -37 -8 6 -22 10 -32 8 -14 -2 -9 -9 19 -26 37 -23 38 -24 23 -52
-13 -25 -13 -30 -1 -37 8 -4 16 -19 19 -33 3 -18 5 -15 6 13 0 23 7 40 16 43
11 5 12 10 2 25 -9 14 -9 21 1 31 19 19 14 44 -14 64 -15 10 -39 29 -54 42
-29 23 -60 29 -60 12 0 -15 -217 -13 -222 2 -2 6 -10 8 -16 4 -8 -4 -12 -35
-12 -80 0 -81 -12 -104 -43 -82 -14 11 -17 28 -17 90 0 42 -4 76 -9 76 -5 0
-11 -5 -13 -12 -5 -14 -218 -12 -232 3 -16 15 -31 11 -56 -16z m20 -33 c0 -11
-49 -62 -60 -62 -13 0 -21 16 -15 32 8 20 75 47 75 30z m330 -378 c0 -147 -3
-223 -10 -219 -6 4 -10 88 -10 219 0 187 3 226 17 226 2 0 3 -102 3 -226z m-5
-284 c3 -5 -3 -10 -14 -10 -12 0 -21 5 -21 10 0 6 6 10 14 10 8 0 18 -4 21
-10z m100 -12 c-11 -6 -23 -16 -27 -22 -5 -7 -8 -5 -8 5 0 21 9 29 34 29 21
-1 21 -1 1 -12z m212 -80 c-3 -8 -6 -5 -6 6 -1 11 2 17 5 13 3 -3 4 -12 1 -19z
m-407 -98 c11 -7 3 -10 -28 -10 -26 0 -41 4 -37 10 8 13 45 13 65 0z m108
-179 c8 -5 12 -22 10 -42 -3 -31 -6 -34 -40 -37 -48 -4 -52 -29 -5 -34 30 -3
32 -5 32 -43 0 -38 -2 -40 -32 -43 -41 -4 -44 -22 -4 -22 46 0 61 -10 61 -40
0 -37 -15 -41 -115 -32 l-80 7 -3 132 c-3 150 -12 135 93 152 69 12 68 12 83
2z m743 -24 c11 -42 2 -57 -37 -57 -44 0 -45 -23 -1 -35 27 -8 32 -15 32 -40
0 -25 -5 -32 -32 -40 -39 -11 -43 -25 -9 -25 41 0 56 -11 56 -40 0 -35 -7 -37
-107 -32 l-83 4 0 134 c0 99 3 136 13 139 17 7 129 23 146 21 8 0 18 -14 22
-29z m1167 12 c67 -19 92 -56 92 -134 0 -60 -2 -66 -37 -103 -31 -33 -47 -41
-90 -47 -138 -18 -218 48 -197 164 13 72 36 96 119 125 42 15 43 15 113 -5z
m-827 -13 c16 -33 4 -76 -20 -76 -23 0 -81 -46 -81 -64 0 -23 34 -44 75 -48
39 -3 40 -4 40 -43 0 -47 -12 -51 -102 -40 -74 9 -123 54 -123 113 0 72 53
134 145 168 46 17 54 16 66 -10z m1204 -16 c0 -28 -4 -35 -24 -40 -26 -6 -41
-30 -19 -30 17 -1 52 -30 66 -56 14 -27 -12 -80 -51 -104 -39 -24 -108 -35
-119 -18 -18 29 -8 56 23 67 37 13 35 22 -11 53 -50 34 -54 79 -8 119 18 17
44 32 58 35 14 3 30 7 35 9 6 2 19 3 30 2 16 -2 20 -9 20 -37z m-2630 -4 c32
-25 35 -31 35 -78 0 -97 -80 -159 -209 -162 l-66 -1 -5 125 c-3 74 -1 131 5
139 7 10 32 12 107 9 86 -4 101 -8 133 -32z m715 15 c42 -22 50 -60 24 -109
-17 -32 -17 -33 9 -60 36 -38 35 -67 -3 -87 -23 -12 -35 -13 -50 -5 -11 6 -20
14 -20 19 0 4 -11 21 -25 37 -14 16 -25 35 -25 43 0 8 -3 11 -7 7 -5 -5 -8
-29 -8 -54 l0 -47 -50 0 -50 0 -3 124 c-1 69 0 131 2 138 9 22 163 17 206 -6z
m966 7 c4 -6 8 -28 8 -47 1 -35 2 -36 41 -36 40 0 40 0 43 42 3 47 21 58 78
51 l28 -3 -1 -135 -1 -135 -48 0 -49 0 -5 45 c-4 35 -9 45 -22 44 -71 -3 -68
-1 -68 -50 l0 -45 -47 3 -48 3 -5 125 c-3 69 -1 131 4 138 11 15 82 16 92 0z"/>
<path d="M2668 386 c-13 -9 -18 -27 -18 -63 0 -43 3 -51 26 -64 24 -13 28 -12
50 14 56 65 5 162 -58 113z"/>
<path d="M370 336 c0 -30 4 -57 9 -60 13 -8 61 40 61 62 0 23 -30 52 -53 52
-14 0 -17 -10 -17 -54z"/>
<path d="M1125 381 c-3 -11 -2 -28 3 -36 8 -15 10 -15 21 -1 15 17 11 48 -6
53 -6 2 -14 -5 -18 -16z"/>
<path d="M1127 1253 c-4 -3 -7 -13 -7 -22 1 -13 3 -13 11 2 11 19 8 33 -4 20z"/>
<path d="M575 1180 c3 -5 8 -10 11 -10 2 0 4 5 4 10 0 6 -5 10 -11 10 -5 0 -7
-4 -4 -10z"/>
<path d="M1207 1183 c-4 -3 -7 -28 -7 -54 0 -59 -11 -67 -87 -59 -107 10 -117
-3 -72 -91 27 -52 38 -64 77 -81 38 -17 60 -20 138 -16 106 6 167 30 205 80
13 18 32 39 42 47 9 9 17 23 17 32 0 21 -61 54 -70 39 -4 -7 -49 -10 -121 -8
l-114 3 3 58 c4 56 2 64 -11 50z m-22 -132 c62 -9 40 -17 -65 -26 -75 -6 -109
3 -96 24 8 12 83 13 161 2z m17 -56 c48 -5 62 -11 84 -38 l27 -32 -39 -7 c-69
-12 -104 -8 -153 17 -73 37 -81 81 -12 71 20 -3 62 -8 93 -11z"/>
<path d="M1070 1145 c0 -8 5 -15 10 -15 6 0 10 7 10 15 0 8 -4 15 -10 15 -5 0
-10 -7 -10 -15z"/>
<path d="M618 1082 c-5 -18 -14 -19 -194 -14 -104 2 -190 8 -192 12 -4 11 -60
-21 -67 -39 -3 -7 7 -26 22 -41 16 -14 43 -44 62 -64 43 -48 102 -75 166 -76
28 0 67 -5 88 -11 35 -9 38 -13 33 -35 -7 -25 -7 -25 18 -7 13 10 22 21 20 24
-2 4 3 12 11 19 8 7 22 37 31 66 8 30 27 68 41 85 l26 30 -24 27 c-13 15 -27
31 -30 35 -3 5 -9 0 -11 -11z m-198 -109 c16 -3 32 -15 38 -28 11 -23 9 -24
-54 -31 -59 -6 -70 -4 -112 19 -26 14 -49 33 -51 43 -3 15 5 16 75 10 42 -4
89 -10 104 -13z"/>
<path d="M645 850 c-3 -5 3 -10 14 -10 11 0 23 5 26 10 3 6 -3 10 -14 10 -11
0 -23 -4 -26 -10z"/>
<path d="M4888 489 c-10 -5 -18 -14 -18 -19 0 -17 26 -11 45 10 20 22 4 28
-27 9z"/>
<path d="M5577 453 l-38 -4 3 -122 3 -121 73 -3 c66 -2 72 -1 72 17 0 16 -7
20 -34 20 -26 0 -36 5 -41 20 -8 27 1 40 30 40 20 0 35 16 35 40 0 5 -15 10
-32 12 -29 3 -33 6 -33 33 0 27 3 30 38 33 29 3 37 7 37 23 0 20 -17 22 -113
12z"/>
<path d="M5961 431 c-12 -16 -21 -32 -21 -36 0 -4 -10 -21 -22 -38 -13 -18
-28 -41 -34 -52 -5 -11 -18 -32 -28 -46 -15 -25 -16 -28 -1 -43 18 -17 45 -22
45 -7 0 26 34 41 91 41 54 0 60 -2 69 -25 10 -26 17 -29 44 -19 24 9 19 51 -9
88 -14 18 -25 38 -25 44 0 6 -3 12 -8 14 -4 2 -22 27 -41 56 -18 28 -35 52
-36 52 -2 0 -13 -13 -24 -29z m44 -121 c0 -16 -6 -26 -19 -28 -25 -5 -37 9
-29 36 8 33 48 26 48 -8z"/>
<path d="M4524 437 c-2 -7 -3 -62 -2 -123 l3 -109 75 0 c68 0 75 2 75 20 0 15
-7 20 -30 21 -52 1 -55 8 -55 110 l0 94 -30 0 c-17 0 -33 -6 -36 -13z"/>
<path d="M5097 368 c-4 -46 -7 -102 -7 -125 0 -39 2 -43 25 -43 23 0 24 4 27
62 2 34 8 63 13 65 10 3 91 -51 144 -96 13 -12 27 -21 31 -21 9 0 20 103 20
181 0 56 -1 59 -25 59 -24 0 -25 -3 -25 -59 0 -33 -5 -63 -10 -66 -6 -3 -48
23 -95 59 -47 36 -87 66 -89 66 -2 0 -6 -37 -9 -82z"/>
<path d="M3625 411 c-19 -8 -20 -15 -15 -107 l5 -99 65 0 c51 0 65 3 65 15 0
9 -12 17 -30 20 -37 6 -43 43 -7 48 32 5 30 42 -2 42 -51 0 -39 46 12 52 16 2
27 9 27 18 0 17 -86 25 -120 11z"/>
<path d="M4007 414 c-4 -4 -7 -27 -7 -51 0 -54 -19 -57 -81 -10 -43 33 -82 57
-93 57 -3 0 -6 -47 -6 -105 l0 -105 25 0 c22 0 25 4 25 38 0 44 13 67 31 59 8
-3 42 -27 77 -52 46 -34 64 -43 67 -32 3 7 4 56 3 108 -2 75 -6 94 -18 97 -9
1 -19 0 -23 -4z"/>
<path d="M4853 408 c-5 -7 -8 -29 -7 -48 1 -19 3 -63 3 -98 1 -63 1 -63 29
-60 l27 3 0 105 c0 99 -1 105 -21 108 -11 2 -25 -3 -31 -10z"/>
</g>
</svg>
